<svg width="48" height="48" fill="none" xmlns="http://www.w3.org/2000/svg"><path d="M0 24C0 10.745 10.745 0 24 0s24 10.745 24 24-10.745 24-24 24S0 37.255 0 24z" fill="#F6F6F8"/><path d="M34.515 18.018a6.037 6.037 0 01-3.648-1.22 6.052 6.052 0 01-2.412-4.78h-3.913V22.71l-.004 5.856A3.541 3.541 0 0120.79 32.1a3.528 3.528 0 01-1.62-.497 3.541 3.541 0 01-1.732-2.984 3.544 3.544 0 014.666-3.414v-3.972a7.692 7.692 0 00-1.128-.084c-2.166 0-4.19.9-5.638 2.521a7.34 7.34 0 00-1.852 4.428 7.33 7.33 0 002.184 5.71 7.503 7.503 0 005.306 2.172 7.477 7.477 0 005.306-2.172 7.325 7.325 0 002.197-5.212l-.02-8.745a9.889 9.889 0 006.066 2.062v-3.896c.001.001-.01.001-.01.001z" fill="#000"/></svg>